<svg xmlns="http://www.w3.org/2000/svg" width="77.403" height="109.993" viewBox="0 0 77.403 109.993">
  <g id="Page-1" transform="translate(-7 -3)">
    <g id="icon-70-document-code" transform="translate(7 3)">
      <path id="document-code" d="M57.923,3H15.159A8.167,8.167,0,0,0,7,11.178v93.638a8.149,8.149,0,0,0,8.137,8.177H76.266a8.142,8.142,0,0,0,8.137-8.11V31.517L59.96,3ZM55.886,7.074H15.13a4.081,4.081,0,0,0-4.056,4.055v93.735a4.083,4.083,0,0,0,4.074,4.055H76.255a4.061,4.061,0,0,0,4.074-4.047V35.591h-16.3a8.126,8.126,0,0,1-8.139-8.172V7.074ZM59.96,9.111v18.3a4.1,4.1,0,0,0,4.06,4.11H79.107L59.96,9.111Zm-12.221,55L39.591,96.7h4.074l8.148-32.591Zm-16.3,28.517L19.221,80.4,31.443,68.181l2.852,2.852-9.37,9.37,9.37,9.37-2.852,2.852Zm28.517,0L72.181,80.4,59.96,68.181l-2.852,2.852,9.37,9.37-9.37,9.37,2.852,2.852Z" transform="translate(-7 -3)" fill="#fff" fill-rule="evenodd"/>
    </g>
  </g>
</svg>
