<svg xmlns="http://www.w3.org/2000/svg" width="115.998" height="109.993" viewBox="0 0 115.998 109.993">
  <g id="School" transform="translate(-2.999 -6)">
    <path id="Path_5" data-name="Path 5" d="M116.994,111.994h-6V66h6a2,2,0,0,0,1.86-2.74l-12-30a2,2,0,0,0-1.86-1.26H69a1.4,1.4,0,0,0-.28,0L63,26.839V22H81a2,2,0,0,0,2-2V8a2,2,0,0,0-2-2H61a2,2,0,0,0-2,2V26.839L53.278,32A1.4,1.4,0,0,0,53,32H17a2,2,0,0,0-1.86,1.26l-12,30A2,2,0,0,0,5,66h6v46H5a2,2,0,0,0,0,4H116.994a2,2,0,0,0,0-4ZM103.635,36l10.4,26H83V46a2.842,2.842,0,0,0,0-.44,1.5,1.5,0,0,0,0-.32,2.961,2.961,0,0,0-.16-.26,3.119,3.119,0,0,0-.28-.38h0L73,36ZM63,10H79v8H63ZM18.36,36H49l-9.319,8.519h0a2.36,2.36,0,0,0-.26.36,2.2,2.2,0,0,0-.18.28,1.32,1.32,0,0,0,0,.3A3.779,3.779,0,0,0,39,46V62H7.961ZM15,66H39v46H15Zm38,46V84H69v28Zm20,0V82a2,2,0,0,0-2-2H51a2,2,0,0,0-2,2v30H43V46.877L61,30.419,79,46.877v65.116Zm10,0V66h24v46Z" transform="translate(0)" fill="#fff"/>
    <path id="Path_6" data-name="Path 6" d="M22,44H14a2,2,0,0,0-2,2v8a2,2,0,0,0,2,2h8a2,2,0,0,0,2-2V46A2,2,0,0,0,22,44Zm-2,8H16V48h4Z" transform="translate(9 37.995)" fill="#fff"/>
    <path id="Path_7" data-name="Path 7" d="M56,44H48a2,2,0,0,0-2,2v8a2,2,0,0,0,2,2h8a2,2,0,0,0,2-2V46A2,2,0,0,0,56,44Zm-2,8H50V48h4Z" transform="translate(42.996 37.995)" fill="#fff"/>
    <path id="Path_8" data-name="Path 8" d="M36,28a8,8,0,1,0,8,8A8,8,0,0,0,36,28Zm0,12a4,4,0,1,1,4-4A4,4,0,0,1,36,40Z" transform="translate(24.998 21.997)" fill="#fff"/>
  </g>
</svg>
